# xmcd
#
# Track frame offsets: 
#        182
#        81040
#        106265
#        165110
#        240917
#        276195
#
# Disc length: 4211 seconds
#
# Revision: 13
# Processed by: cddbd v1.5.2PL0 Copyright (c) Steve Scherf et al.
# Submitted via: ExactAudioCopyFreeDBPlugin 1.0
#
DISCID=37107106
DTITLE=Oistrakh, Rostropovich, Richter, Karajan, Szell - Berlin Philha
DTITLE=rmonic, Cleveland Orchestra - Beethoven And Brahms Concertos
DYEAR=1997
DGENRE=Classical
TTITLE0=Triple Concerto In C, Op.56 - I. Allegro
TTITLE1=Triple Concerto In C, Op.56 - II. Largo
TTITLE2=Triple Concerto In C, Op.56 - III. Rondo Alla Polacca
TTITLE3=Double Concerto In A Minor Op.102 - I. Allegro
TTITLE4=Double Concerto In A Minor Op.102 - II. Andante
TTITLE5=Double Concerto In A Minor Op.102 - III. Vivace Non Troppo
EXTD=
EXTT0=
EXTT1=
EXTT2=
EXTT3=
EXTT4=
EXTT5=
PLAYORDER=
